<svg xmlns="http://www.w3.org/2000/svg" viewBox="0 0 24 24">
  <g transform="rotate(-30,12,12)">
    <!-- 넥 (길게) -->
    <rect x="10.8" y="1.5" width="2.4" height="13" rx="0.8" fill="#c49464"/>
    <!-- 프렛 -->
    <line x1="10.8" y1="4" x2="13.2" y2="4" stroke="#a87d50" stroke-width="0.3"/>
    <line x1="10.8" y1="6.5" x2="13.2" y2="6.5" stroke="#a87d50" stroke-width="0.3"/>
    <line x1="10.8" y1="9" x2="13.2" y2="9" stroke="#a87d50" stroke-width="0.3"/>
    <line x1="10.8" y1="11.5" x2="13.2" y2="11.5" stroke="#a87d50" stroke-width="0.3"/>
    <!-- 헤드 -->
    <path d="M10.5,1.5 L10,0.5 Q9.5,-0.3 10.2,0 L10.8,1.5 Z" fill="#a87d50"/>
    <path d="M13.2,1.5 L13.8,0.5 Q14.3,-0.3 13.6,0 L13.2,1.5 Z" fill="#a87d50"/>
    <rect x="10.2" y="0.5" width="3.6" height="1.5" rx="0.6" fill="#b0845a"/>
    <!-- 튜닝페그 -->
    <circle cx="9.8" cy="0.8" r="0.65" fill="#777"/>
    <circle cx="9.8" cy="1.8" r="0.65" fill="#777"/>
    <circle cx="14.2" cy="0.8" r="0.65" fill="#777"/>
    <circle cx="14.2" cy="1.8" r="0.65" fill="#777"/>
    <!-- 바디 (뿔 달린 일렉베이스 형태) -->
    <path d="
      M10.8,13
      L7,14 Q4,14.5 3.5,17 Q3,19 5,20.5 L7,21.5
      Q9,22.5 11,23 L13,23
      Q15,22.5 17,21.5 L18.5,20
      Q20,18.5 19.5,16.5 Q19,15 17,14.2
      L13.2,13 Z
    " fill="#4a8ed4"/>
    <!-- 상단 뿔 (어퍼 혼) -->
    <path d="M10.8,13 L8.5,12 Q6.5,11 6,10.5 Q5.5,10 6.2,10.3 L8,11 L10.8,12.5 Z" fill="#5a9ee4"/>
    <!-- 하단 뿔 (로워 혼) -->
    <path d="M13.2,13 L15,12.5 Q16,12.2 16.5,12 Q17,11.8 16.5,12.2 L15.5,12.8 L13.2,13.5 Z" fill="#5a9ee4"/>
    <!-- 픽가드 -->
    <path d="M7,15 Q6,16 6.5,18 L9,19.5 L11,19 L10,16 Z" fill="#5a9ee4" opacity="0.5"/>
    <!-- 픽업 -->
    <rect x="8.5" y="17" width="6" height="1" rx="0.4" fill="#3a6ab5"/>
    <rect x="8.5" y="19" width="6" height="1" rx="0.4" fill="#3a6ab5"/>
    <!-- 브릿지 -->
    <rect x="9.5" y="21" width="4" height="0.8" rx="0.3" fill="#888"/>
    <!-- 줄 4줄 -->
    <line x1="11.2" y1="2" x2="11.2" y2="21.5" stroke="rgba(255,255,255,0.45)" stroke-width="0.3"/>
    <line x1="11.7" y1="2" x2="11.7" y2="21.5" stroke="rgba(255,255,255,0.45)" stroke-width="0.3"/>
    <line x1="12.2" y1="2" x2="12.2" y2="21.5" stroke="rgba(255,255,255,0.4)" stroke-width="0.3"/>
    <line x1="12.7" y1="2" x2="12.7" y2="21.5" stroke="rgba(255,255,255,0.4)" stroke-width="0.3"/>
    <!-- 볼륨/톤 노브 -->
    <circle cx="16" cy="19" r="0.6" fill="#555"/>
    <circle cx="16" cy="20.3" r="0.6" fill="#555"/>
  </g>
</svg>
