<svg xmlns="http://www.w3.org/2000/svg" viewBox="0 0 24 24">
  <g transform="rotate(-30,12,12)">
    <!-- 넥 -->
    <rect x="10.8" y="3" width="2.4" height="11" rx="0.8" fill="#d4a574"/>
    <!-- 프렛 -->
    <line x1="10.8" y1="5.5" x2="13.2" y2="5.5" stroke="#b8956a" stroke-width="0.3"/>
    <line x1="10.8" y1="7.5" x2="13.2" y2="7.5" stroke="#b8956a" stroke-width="0.3"/>
    <line x1="10.8" y1="9.5" x2="13.2" y2="9.5" stroke="#b8956a" stroke-width="0.3"/>
    <line x1="10.8" y1="11.5" x2="13.2" y2="11.5" stroke="#b8956a" stroke-width="0.3"/>
    <!-- 헤드 -->
    <rect x="10.2" y="2" width="3.6" height="2" rx="0.8" fill="#c49464"/>
    <!-- 튜닝페그 -->
    <circle cx="9.8" cy="2.5" r="0.6" fill="#888"/>
    <circle cx="9.8" cy="3.5" r="0.6" fill="#888"/>
    <circle cx="14.2" cy="2.5" r="0.6" fill="#888"/>
    <circle cx="14.2" cy="3.5" r="0.6" fill="#888"/>
    <!-- 바디 (일렉기타 형태 - 컷어웨이) -->
    <path d="
      M10.8,13
      L7.5,14 Q4.5,15 4,17.5 Q3.5,19.5 5.5,21 L8,22
      Q10,23 12,23 Q14,23 16,22 L18.5,20.5
      Q20,19 19.5,17 Q19,15 16.5,14
      L13.2,13 Z
    " fill="#e8913a"/>
    <!-- 상단 뿔 -->
    <path d="M10.8,13 L8.5,12 Q7,11 6.5,10.5 Q6,10.2 6.5,10.5 L8.5,11.5 L10.8,12.5 Z" fill="#f0a050"/>
    <!-- 하단 뿔 -->
    <path d="M13.2,13 L15.5,12 Q16.5,11.5 17,11.3 Q17.3,11.2 17,11.5 L15.5,12.3 L13.2,13.2 Z" fill="#f0a050"/>
    <!-- 픽가드 -->
    <path d="M7,15.5 Q6,16.5 6.5,18.5 L9,19.5 L11,19 L10,16 Z" fill="#f0a050" opacity="0.4"/>
    <!-- 픽업 -->
    <rect x="8.5" y="17" width="6" height="1" rx="0.4" fill="#c07028"/>
    <rect x="8.5" y="19" width="6" height="1" rx="0.4" fill="#c07028"/>
    <!-- 브릿지 -->
    <rect x="9.5" y="21" width="4" height="0.8" rx="0.3" fill="#888"/>
    <!-- 줄 6줄 -->
    <line x1="11" y1="4" x2="11" y2="21.5" stroke="rgba(255,255,255,0.4)" stroke-width="0.2"/>
    <line x1="11.4" y1="4" x2="11.4" y2="21.5" stroke="rgba(255,255,255,0.4)" stroke-width="0.2"/>
    <line x1="11.8" y1="4" x2="11.8" y2="21.5" stroke="rgba(255,255,255,0.4)" stroke-width="0.2"/>
    <line x1="12.2" y1="4" x2="12.2" y2="21.5" stroke="rgba(255,255,255,0.4)" stroke-width="0.2"/>
    <line x1="12.6" y1="4" x2="12.6" y2="21.5" stroke="rgba(255,255,255,0.4)" stroke-width="0.2"/>
    <line x1="13" y1="4" x2="13" y2="21.5" stroke="rgba(255,255,255,0.4)" stroke-width="0.2"/>
    <!-- 볼륨/톤 노브 -->
    <circle cx="16" cy="19.5" r="0.55" fill="#555"/>
    <circle cx="16" cy="20.8" r="0.55" fill="#555"/>
  </g>
</svg>
